<?xml version="1.0"?>
<svg width="570" height="120" xmlns="http://www.w3.org/2000/svg" xmlns:svg="http://www.w3.org/2000/svg" version="1.1" xml:space="preserve">
 <desc>Created with Fabric.js 5.2.4</desc>
 <g class="layer">
  <title>Layer 1</title>
  <g id="7d4f92a0-765a-48c3-ab19-34efbe90c23c" transform="matrix(Infinity NaN NaN Infinity 0 0)"/>
  <g id="svg_2" transform="matrix(0 0.220217 -0.220217 0 2307.93 82.2696)">
   <g id="svg_3">
    <g id="svg_4" transform="matrix(0.13 0 0 -0.13 6.12 -1144.38)">
     <path d="m5681.89,-51024.3c-11,-2 -45,-9 -75,-15c-77,-15 -205,-79 -267,-134c-121,-107 -206,-291 -243,-527c-11,-65 -27,-1088 -18,-1088c6,0 2651,-531 2676,-537l22,-5l0,283l0,284l-468,91l-467,90l-6,285c-7,313 -23,433 -79,601c-56,167 -121,276 -232,393c-178,188 -428,287 -717,284c-58,-1 -115,-3 -126,-5zm305,-555c146,-23 274,-116 335,-244c55,-117 68,-192 73,-442l4,-223l-28,6c-16,3 -211,40 -434,82l-405,78l-3,192c-3,213 9,298 54,390c69,140 202,194 404,161z" fill="#6366f1" fill-rule="nonzero" id="svg_5" stroke-dashoffset="0" stroke-miterlimit="4" transform="translate(-7149.68 -18543.5)"/>
    </g>
    <g id="svg_6" transform="matrix(0.13 0 0 -0.13 6.34 -790.47)">
     <path d="m5998.89,-53648.3c-432,-45 -755,-260 -890,-592c-49,-121 -63,-195 -69,-356c-9,-233 21,-375 122,-577c140,-284 371,-503 689,-655c292,-141 573,-199 889,-187c224,9 381,42 534,112c286,132 460,349 529,661c21,95 23,335 5,434c-48,252 -176,486 -372,680c-106,105 -175,159 -306,238c-176,105 -448,200 -654,227c-140,19 -373,26 -477,15zm319,-570c675,-49 1175,-530 985,-946c-62,-135 -226,-233 -441,-264c-141,-21 -370,-16 -495,10c-469,96 -811,381 -845,705c-30,273 183,462 555,494c52,5 97,9 100,10c3,0 66,-4 141,-9z" fill="#6366f1" fill-rule="nonzero" id="svg_7" stroke-dashoffset="0" stroke-miterlimit="4" transform="translate(-7152.37 -15888.3)"/>
    </g>
    <g id="svg_8" transform="matrix(0.13 0 0 -0.13 6.17 -419.17)">
     <path d="m5076.89,-56607.3l1,-280l37,-7c20,-4 255,-50 522,-103l485,-97l3,-467c2,-443 1,-468 -15,-463c-34,10 -1002,206 -1018,206c-13,0 -15,-32 -13,-277l3,-278l1330,-267c732,-147 1338,-267 1348,-268c16,0 17,20 17,279l0,280l-52,10c-71,14 -921,178 -1025,198l-83,15l0,465l0,466l43,-7c23,-4 280,-56 572,-116c291,-61 533,-110 537,-110c5,0 8,126 8,279c0,258 -1,280 -17,285c-10,3 -607,123 -1328,266c-720,144 -1320,264 -1332,267l-23,5l0,-281z" fill="#6366f1" fill-rule="nonzero" id="svg_9" stroke-dashoffset="0" stroke-miterlimit="4" transform="translate(-7150 -13101)"/>
    </g>
    <g id="svg_10" transform="matrix(0.13 0 0 -0.13 6.46 -76.52)">
     <path d="m5350.89,-59180.3c-96,-98 -157,-183 -214,-296c-74,-149 -100,-264 -100,-441c0,-187 48,-368 137,-520c78,-132 263,-298 398,-356c111,-47 245,-67 376,-55c200,19 293,63 439,210c74,74 114,126 180,233c251,407 317,492 402,516c100,28 232,-17 293,-99c54,-74 77,-143 83,-251c11,-226 -93,-443 -289,-598l-46,-37l152,-194c84,-107 157,-196 162,-197c31,-11 257,218 328,331c194,312 227,759 81,1098c-56,129 -96,187 -201,294c-90,91 -110,106 -205,152c-166,80 -320,105 -499,82c-121,-16 -186,-38 -271,-95c-115,-76 -173,-153 -398,-518c-205,-331 -239,-364 -371,-355c-144,11 -237,107 -263,272c-26,168 36,331 189,496l56,60l-49,53c-27,28 -100,107 -163,175c-63,67 -117,122 -120,122c-4,0 -43,-37 -87,-82z" fill="#6366f1" fill-rule="nonzero" id="svg_11" stroke-dashoffset="0" stroke-miterlimit="4" transform="translate(-7153.29 -10536.3)"/>
    </g>
    <g id="svg_12" transform="matrix(0.13 0 0 -0.13 50.68 173)">
     <path d="m6536.89,-61998.3c0,-264 2,-480 4,-480c6,0 335,-69 364,-77l22,-5l-2,483l-3,483l-180,37c-99,21 -186,38 -192,39c-10,0 -13,-102 -13,-480z" fill="#6366f1" fill-rule="nonzero" id="svg_13" stroke-dashoffset="0" stroke-miterlimit="4" transform="translate(-7455 -8679)"/>
    </g>
    <g id="svg_14" transform="matrix(0.13 0 0 -0.13 6.22 402.52)">
     <path d="m5077.89,-63503.3c0,-437 2,-795 3,-795c6,0 2649,-531 2674,-537l22,-5l0,819l0,820l-222,43c-123,24 -229,45 -235,47c-10,4 -13,-110 -15,-534l-3,-539l-340,71l-340,71l-3,441l-2,442l-53,10c-28,6 -126,24 -217,41c-91,17 -173,33 -182,36c-17,5 -18,-20 -18,-435c0,-319 -3,-441 -11,-441c-6,0 -141,25 -300,56l-289,56l-2,521l-3,520l-220,44c-121,23 -226,43 -232,43c-10,0 -13,-169 -12,-795z" fill="#6366f1" fill-rule="nonzero" id="svg_15" stroke-dashoffset="0" stroke-miterlimit="4" transform="translate(-7150.41 -6944)"/>
    </g>
    <g id="svg_16" transform="matrix(0.13 0 0 -0.13 -6.77 1020.51)">
     <path d="m4318.89,-68030.3l3,-1603l28,-88c60,-192 139,-320 278,-450c158,-148 332,-229 553,-257c51,-6 650,-10 1638,-10l1558,0l0,1575c0,1733 3,1639 -61,1806c-115,297 -362,515 -684,602l-80,21l-1618,3l-1617,4l2,-1603zm2557,741c344,-138 628,-252 630,-254c3,-4 161,-1394 161,-1420c0,-6 -127,-110 -282,-230c-156,-121 -408,-318 -561,-437c-152,-120 -281,-218 -285,-218c-4,0 -296,133 -649,296c-588,271 -642,298 -647,322c-3,15 -51,317 -106,672c-55,355 -102,659 -105,677c-6,31 -4,32 242,204c136,95 401,280 588,411c277,194 344,238 364,233c13,-3 305,-119 650,-256z" fill="#6366f1" fill-rule="nonzero" id="svg_17" stroke-dashoffset="0" stroke-miterlimit="4" transform="translate(-7070.01 -2285.5)"/>
    </g>
    <g id="svg_18" transform="matrix(0.13 0 0 -0.13 47.13 885.94)">
     <path d="m6262.89,-67235.3c2,-21 9,-89 14,-152c5,-63 11,-116 13,-118c4,-3 222,-18 670,-44c109,-6 200,-10 202,-7c2,2 -85,39 -193,82c-244,97 -702,276 -706,276c-2,0 -2,-17 0,-37z" fill="#6366f1" fill-rule="nonzero" id="svg_19" stroke-dashoffset="0" stroke-miterlimit="4" transform="translate(-7434.77 -3340.49)"/>
    </g>
    <g id="svg_20" transform="matrix(0.13 0 0 -0.13 66.72 984.61)">
     <path d="m6614.89,-67946.3c152,-197 340,-440 417,-540c77,-99 140,-180 142,-179c5,6 193,1010 189,1014c-5,5 -910,63 -993,63c-31,0 -27,-6 245,-358z" fill="#6366f1" fill-rule="nonzero" id="svg_21" stroke-dashoffset="0" stroke-miterlimit="4" transform="translate(-7583 -2591.5)"/>
    </g>
    <g id="svg_22" transform="matrix(0.13 0 0 -0.13 -83.82 953.01)">
     <path d="m5776.89,-67729.3c-212,-65 -411,-127 -443,-136c-32,-9 -54,-20 -50,-23c9,-9 651,-270 662,-270c4,0 55,116 114,258c125,303 121,292 111,292c-5,-1 -182,-55 -394,-121z" fill="#6366f1" fill-rule="nonzero" id="svg_23" stroke-dashoffset="0" stroke-miterlimit="4" transform="translate(-6452.5 -2835.03)"/>
    </g>
    <g id="svg_24" transform="matrix(0.13 0 0 -0.13 137.31 1016.46)">
     <path d="m7318.89,-68300.3c-46,-237 -80,-434 -75,-438c4,-4 68,-34 141,-68c105,-48 132,-57 132,-44c0,30 -108,974 -112,977c-2,2 -41,-190 -86,-427z" fill="#6366f1" fill-rule="nonzero" id="svg_25" stroke-dashoffset="0" stroke-miterlimit="4" transform="translate(-8103.26 -2353.82)"/>
    </g>
    <g id="svg_26" transform="matrix(0.13 0 0 -0.13 -104.73 1025.43)">
     <path d="m5442.89,-68430.3l216,-432l15,34c8,19 57,136 108,260c52,124 101,241 109,261l15,37l-332,136c-183,75 -335,136 -340,136c-4,0 90,-194 209,-432z" fill="#6366f1" fill-rule="nonzero" id="svg_27" stroke-dashoffset="0" stroke-miterlimit="4" transform="translate(-6292.94 -2288)"/>
    </g>
    <g id="svg_28" transform="matrix(0.13 0 0 -0.13 -125.27 1050.48)">
     <path d="m5210.89,-68148.3c3,-14 38,-234 77,-490c39,-256 75,-468 78,-473c4,-4 62,33 129,83l122,90l-201,402c-111,222 -203,405 -206,408c-3,3 -2,-6 1,-20z" fill="#6366f1" fill-rule="nonzero" id="svg_29" stroke-dashoffset="0" stroke-miterlimit="4" transform="translate(-6135.59 -2098.64)"/>
    </g>
    <g id="svg_30" transform="matrix(0.13 0 0 -0.13 10 1133.21)">
     <path d="m7091.89,-68803.3c-5,-2 -305,-41 -665,-86c-360,-45 -659,-85 -663,-90c-8,-6 740,-699 754,-699c6,0 563,816 593,868c7,12 1,14 -19,7z" fill="#6366f1" fill-rule="nonzero" id="svg_31" stroke-dashoffset="0" stroke-miterlimit="4" transform="translate(-7161.87 -1479.51)"/>
    </g>
    <g id="svg_32" transform="matrix(0.13 0 0 -0.13 -67.22 1140.91)">
     <path d="m5529.89,-69091.3l-123,-91l28,-12c15,-6 217,-99 449,-207c233,-107 420,-190 417,-185c-10,16 -636,588 -643,587c-3,0 -61,-42 -128,-92z" fill="#6366f1" fill-rule="nonzero" id="svg_33" stroke-dashoffset="0" stroke-miterlimit="4" transform="translate(-6577.02 -1425.39)"/>
    </g>
   </g>
  </g>
 </g>
</svg>